<svg xmlns="http://www.w3.org/2000/svg" width="100" height="100" viewBox="0 0 100 100" version="1.1"><path d="M 21.251 20.974 C -0.047 33.412, 7.874 59.413, 39.764 81.744 L 50.029 88.931 60.264 81.760 C 88.184 62.200, 97.184 42.452, 85.460 26.474 C 78.910 17.547, 63.786 15.241, 54.538 21.760 L 50 24.959 45.442 21.746 C 38.611 16.931, 28.715 16.615, 21.251 20.974 M 30.500 22.494 C 29.950 22.676, 28.297 23.089, 26.827 23.412 C 5.262 28.150, 12.015 55.493, 39.741 75.699 L 50 83.175 60.259 75.699 C 78.111 62.689, 85.153 52.962, 85.265 41.161 C 85.433 23.284, 65.087 15.886, 53.148 29.484 L 50 33.070 46.852 29.484 C 42.518 24.548, 34.564 21.147, 30.500 22.494" stroke="none" fill="#fffcfc" fill-rule="evenodd"/></svg>