<svg xmlns="http://www.w3.org/2000/svg" width="329" height="314" viewBox="0 0 329 314" version="1.1"><path d="M 135.041 13.670 C 95.347 22.126, 79.599 72.244, 107.346 101.815 C 139.068 135.624, 191.129 120.003, 200.634 73.824 C 207.850 38.769, 171.916 5.815, 135.041 13.670 M 208.500 134.402 C 194.452 137.946, 181.714 144.878, 171.408 154.587 C 165.248 160.390, 165.893 160.200, 156.718 158.916 C 135.162 155.901, 87.228 165.829, 62 178.534 C 35.062 192.100, 26.840 203.237, 26.218 227 C 25.523 253.571, 22.590 252.331, 88 253.127 C 116.325 253.472, 143.660 253.809, 148.744 253.877 C 157.987 254, 157.987 254, 161.035 258.250 C 201.809 315.114, 288.482 298.815, 306.066 230.976 C 320.691 174.556, 265.578 120.003, 208.500 134.402 M 212.173 161.992 C 188.462 167.601, 170.657 195.954, 175.320 220.677 C 188.051 288.176, 287.451 273.355, 278.783 205.250 C 277.405 194.420, 278.207 194.030, 257.486 215.613 C 235.347 238.672, 233.888 239.686, 223.601 239.151 C 220.055 238.966, 199.682 219.493, 197.421 214.128 C 190.486 197.669, 209.616 187.664, 222.102 201.220 C 226.742 206.258, 263.055 177.067, 259.385 171.249 C 254.677 163.785, 227.291 158.415, 212.173 161.992" stroke="none" fill="#f8f8f8" fill-rule="evenodd"/></svg>