<svg xmlns="http://www.w3.org/2000/svg" width="48" height="48" viewBox="0 0 48 48" version="1.1"><path d="M 14.343 12.645 C 10.029 16.300, 6.363 19.858, 6.195 20.552 C 5.416 23.769, 8.432 22.471, 15.617 16.498 C 19.915 12.924, 23.688 10, 24 10 C 24.312 10, 28.085 12.924, 32.383 16.498 C 36.682 20.071, 40.604 22.745, 41.099 22.439 C 42.475 21.588, 42.172 19.196, 40.574 18.300 C 39.790 17.860, 39.003 15.704, 38.824 13.508 L 38.500 9.517 36.679 9.171 L 34.858 8.826 34.310 10.922 L 33.762 13.018 29.878 9.509 C 27.742 7.579, 25.137 6, 24.090 6 C 23.043 6, 18.657 8.990, 14.343 12.645 M 16.143 18.084 L 8.916 24.168 9.208 31.334 L 9.500 38.500 15.196 38.798 L 20.892 39.097 21.196 33.798 L 21.500 28.500 24 28.500 L 26.500 28.500 26.804 33.798 L 27.108 39.097 32.804 38.798 L 38.500 38.500 38.792 31.334 L 39.084 24.168 31.857 18.084 C 27.881 14.738, 24.346 12, 24 12 C 23.654 12, 20.119 14.738, 16.143 18.084" stroke="none" fill="#fffcfc" fill-rule="evenodd"/><path d="" stroke="none" fill="#fcfcfc" fill-rule="evenodd"/></svg>