<svg xmlns="http://www.w3.org/2000/svg" width="50" height="50" viewBox="0 0 50 50" version="1.1"><path d="M 15 20.851 C 15 40.328, 14.257 44.249, 10.144 46.484 L 7.500 47.920 25.615 47.960 L 43.730 48 46.365 45.927 L 49 43.855 49 23.427 L 49 3 32 3 L 15 3 15 20.851 M 21 9 C 21 9.606, 25.333 10, 32 10 C 38.667 10, 43 9.606, 43 9 C 43 8.394, 38.667 8, 32 8 C 25.333 8, 21 8.394, 21 9 M 1.709 12.624 C 1.319 13.014, 1 19.976, 1 28.095 L 1 42.857 2.571 44.429 C 4.693 46.550, 9.315 46.415, 11.345 44.171 L 13 42.343 13 27.171 L 13 12 10.750 11.999 L 8.500 11.997 8.829 24.999 C 9.048 33.618, 8.805 38, 8.109 38 C 7.446 38, 6.957 33.307, 6.780 25.250 L 6.500 12.500 4.459 12.208 C 3.336 12.047, 2.099 12.235, 1.709 12.624 M 20 18.500 L 20 24 32 24 L 44 24 44 18.500 L 44 13 32 13 L 20 13 20 18.500 M 22 28 C 22 28.550, 23.575 29, 25.500 29 C 27.425 29, 29 28.550, 29 28 C 29 27.450, 27.425 27, 25.500 27 C 23.575 27, 22 27.450, 22 28 M 35 28 C 35 28.550, 36.575 29, 38.500 29 C 40.425 29, 42 28.550, 42 28 C 42 27.450, 40.425 27, 38.500 27 C 36.575 27, 35 27.450, 35 28 M 22 32 C 22 32.550, 23.575 33, 25.500 33 C 27.425 33, 29 32.550, 29 32 C 29 31.450, 27.425 31, 25.500 31 C 23.575 31, 22 31.450, 22 32 M 35 32 C 35 32.550, 36.575 33, 38.500 33 C 40.425 33, 42 32.550, 42 32 C 42 31.450, 40.425 31, 38.500 31 C 36.575 31, 35 31.450, 35 32 M 22 36 C 22 36.550, 23.575 37, 25.500 37 C 27.425 37, 29 36.550, 29 36 C 29 35.450, 27.425 35, 25.500 35 C 23.575 35, 22 35.450, 22 36 M 35 36 C 35 36.550, 36.575 37, 38.500 37 C 40.425 37, 42 36.550, 42 36 C 42 35.450, 40.425 35, 38.500 35 C 36.575 35, 35 35.450, 35 36 M 22 40 C 22 40.550, 23.575 41, 25.500 41 C 27.425 41, 29 40.550, 29 40 C 29 39.450, 27.425 39, 25.500 39 C 23.575 39, 22 39.450, 22 40 M 35 40 C 35 40.550, 36.575 41, 38.500 41 C 40.425 41, 42 40.550, 42 40 C 42 39.450, 40.425 39, 38.500 39 C 36.575 39, 35 39.450, 35 40" stroke="none" fill="#fffcfc" fill-rule="evenodd"/><path d="" stroke="none" fill="#fcfcfc" fill-rule="evenodd"/></svg>